<svg xmlns="http://www.w3.org/2000/svg">
  <path d="M19,68 L28,60 L19,52 L19,68 Z M51.517,35.575 C49.905,33.944 46.945,32 42,32 C36.577,32 30.994,33.411 27,34.711 L27,12 L19,12 L19,46.692 L24.651,44.132 C24.742,44.091 33.866,40 42,40 C46.062,40 46.961,42.243 47,44.11 L47,68 L55,68 L55,44 C55.005,43.488 54.958,39.055 51.517,35.575 Z M41,25 L49,25 C52.618,20.9 54.46,16.544 55,12 L47,12 C46.118,16.534 44.144,20.875 41,25 Z"/>
  <path d="M64.8,0 L7.2,0 C3.224,0 0,3.224 0,7.2 L0,72.8 C0,76.776 3.224,80 7.2,80 L64.8,80 C68.776,80 72,76.776 72,72.8 L72,7.2 C72,3.224 68.776,0 64.8,0 L64.8,0 Z M68,72.8 C68,74.564 66.565,76 64.8,76 L7.2,76 C5.436,76 4,74.564 4,72.8 L4,7.2 C4,5.435 5.436,4 7.2,4 L64.8,4 C66.565,4 68,5.435 68,7.2 L68,72.8 L68,72.8 Z"/>
</svg>
