<svg xmlns="http://www.w3.org/2000/svg">
    <path d="M0,0.207 L2.948,0.207 L2.948,4.26 L6.574,4.26 L6.574,0.207 L9.522,0.207 L9.522,11.113 L6.574,11.113 L6.574,6.706 L2.948,6.706 L2.948,11.113 L0,11.113 L0,0.207 Z" />
    <path d="M13.318,0.207 L21.1,0.207 L21.1,2.654 L16.266,2.654 L16.266,4.423 L19.715,4.423 L19.715,6.722 L16.266,6.722 L16.266,8.741 L21.351,8.741 L21.351,11.114 L13.319,11.114 L13.319,0.207 L13.318,0.207 Z" />
    <path d="M24.588,0.207 L28.847,0.207 C31.647,0.207 33.357,1.136 33.357,3.759 C33.357,5.468 32.635,6.457 31.205,6.942 L33.519,11.113 L30.395,11.113 L28.287,7.326 L27.476,7.326 L27.476,11.113 L24.587,11.113 L24.587,0.207 L24.588,0.207 Z M28.744,5.085 C29.953,5.085 30.483,4.746 30.483,3.832 C30.483,2.918 29.952,2.594 28.744,2.594 L27.477,2.594 L27.477,5.085 L28.744,5.085 Z" />
    <path d="M36.433,5.66 C36.433,1.667 39.159,0 41.798,0 C44.421,0 47.148,1.666 47.148,5.66 C47.148,9.654 44.421,11.32 41.798,11.32 C39.159,11.319 36.433,9.654 36.433,5.66 Z M44.199,5.66 C44.199,3.656 43.329,2.433 41.797,2.433 C40.249,2.433 39.38,3.656 39.38,5.66 C39.38,7.665 40.25,8.962 41.797,8.962 C43.33,8.961 44.199,7.665 44.199,5.66 Z" />
    <path d="M50.428,0.207 L53.376,0.207 L53.376,4.157 L56.383,0.207 L59.802,0.207 L56.132,4.511 L60.126,11.114 L56.795,11.114 L54.216,6.751 L53.376,7.724 L53.376,11.114 L50.428,11.114 L50.428,0.207 Z" />
    <path d="M62.848,6.736 L62.848,0.207 L65.796,0.207 L65.796,6.722 C65.796,8.225 66.282,8.903 67.462,8.903 C68.641,8.903 69.112,8.225 69.112,6.722 L69.112,0.207 L72,0.207 L72,6.736 C72,9.625 70.615,11.275 67.431,11.275 C64.247,11.275 62.848,9.625 62.848,6.736 Z" />
</svg>
